<svg xmlns="http://www.w3.org/2000/svg" viewBox="0 0 1200 780" role="img" aria-label="AI実装度を確認するワークショップ風イラスト">
  <defs>
    <linearGradient id="bg" x1="0" x2="1" y1="0" y2="1"><stop offset="0" stop-color="#e0f2fe"/><stop offset="1" stop-color="#fef3c7"/></linearGradient>
    <filter id="shadow" x="-20%" y="-20%" width="140%" height="140%"><feDropShadow dx="0" dy="22" stdDeviation="22" flood-color="#1d4ed8" flood-opacity=".14"/></filter>
  </defs>
  <rect width="1200" height="780" rx="58" fill="url(#bg)"/>
  <circle cx="1040" cy="120" r="160" fill="#fff" opacity=".24"/>
  <circle cx="160" cy="690" r="190" fill="#fff" opacity=".18"/>
  
  <rect x="90" y="92" width="1020" height="596" rx="46" fill="#ffffff" opacity=".82" filter="url(#shadow)"/>
  <rect x="138" y="136" width="560" height="346" rx="30" fill="#f8fafc" stroke="#dbeafe" stroke-width="4"/>
  <path d="M188 412 C260 300 346 366 412 264 S564 178 650 242" fill="none" stroke="#2563eb" stroke-width="18" stroke-linecap="round"/>
  <path d="M188 410 C260 346 332 392 420 330 S562 280 650 338" fill="none" stroke="#14b8a6" stroke-width="14" stroke-linecap="round" opacity=".85"/>
  <rect x="752" y="146" width="260" height="52" rx="20" fill="#dbeafe"/>
  <rect x="752" y="226" width="320" height="34" rx="17" fill="#bfdbfe"/>
  <rect x="752" y="286" width="286" height="34" rx="17" fill="#bae6fd"/>
  <rect x="752" y="346" width="330" height="34" rx="17" fill="#bbf7d0"/>
  <g transform="translate(170 520)">
    <circle cx="58" cy="58" r="58" fill="#fde68a"/><circle cx="58" cy="46" r="22" fill="#334155"/><path d="M22 104c10-34 62-34 72 0" fill="#334155"/>
  </g>
  <g transform="translate(330 520)">
    <circle cx="58" cy="58" r="58" fill="#bfdbfe"/><circle cx="58" cy="46" r="22" fill="#334155"/><path d="M20 104c12-32 64-32 76 0" fill="#334155"/>
  </g>
  <g transform="translate(490 520)">
    <circle cx="58" cy="58" r="58" fill="#bbf7d0"/><circle cx="58" cy="46" r="22" fill="#334155"/><path d="M20 104c12-32 64-32 76 0" fill="#334155"/>
  </g>
  <rect x="742" y="455" width="270" height="88" rx="26" fill="#eff6ff" stroke="#bfdbfe" stroke-width="4"/>
  <text x="780" y="508" font-family="Arial, sans-serif" font-size="38" font-weight="800" fill="#1e3a8a">AI Readiness</text>

</svg>