<svg xmlns="http://www.w3.org/2000/svg" viewBox="0 0 1200 780" role="img" aria-label="AIで日常業務を効率化する活用シーンイラスト">
  <defs>
    <linearGradient id="bg" x1="0" x2="1" y1="0" y2="1"><stop offset="0" stop-color="#dcfce7"/><stop offset="1" stop-color="#e0f2fe"/></linearGradient>
    <filter id="shadow" x="-20%" y="-20%" width="140%" height="140%"><feDropShadow dx="0" dy="22" stdDeviation="22" flood-color="#1d4ed8" flood-opacity=".14"/></filter>
  </defs>
  <rect width="1200" height="780" rx="58" fill="url(#bg)"/>
  <circle cx="1040" cy="120" r="160" fill="#fff" opacity=".24"/>
  <circle cx="160" cy="690" r="190" fill="#fff" opacity=".18"/>
  
  <rect x="96" y="120" width="1008" height="538" rx="48" fill="#fff" opacity=".86" filter="url(#shadow)"/>
  <rect x="154" y="178" width="400" height="360" rx="34" fill="#f0f9ff" stroke="#bae6fd" stroke-width="4"/>
  <rect x="196" y="226" width="210" height="28" rx="14" fill="#38bdf8"/><rect x="196" y="284" width="300" height="22" rx="11" fill="#bae6fd"/><rect x="196" y="332" width="250" height="22" rx="11" fill="#bfdbfe"/><rect x="196" y="380" width="320" height="22" rx="11" fill="#bbf7d0"/>
  <rect x="636" y="176" width="360" height="154" rx="32" fill="#ecfdf5" stroke="#86efac" stroke-width="4"/>
  <path d="M682 282 l58-58 58 34 82-88" fill="none" stroke="#16a34a" stroke-width="16" stroke-linecap="round" stroke-linejoin="round"/>
  <rect x="636" y="378" width="360" height="154" rx="32" fill="#fff7ed" stroke="#fed7aa" stroke-width="4"/>
  <circle cx="724" cy="455" r="44" fill="#fdba74"/><rect x="802" y="424" width="140" height="24" rx="12" fill="#fb923c"/><rect x="802" y="472" width="100" height="18" rx="9" fill="#fed7aa"/>
  <path d="M560 382 C610 340 604 250 650 224" fill="none" stroke="#2563eb" stroke-width="10" stroke-linecap="round" stroke-dasharray="18 18"/>
  <path d="M560 432 C606 480 604 512 650 548" fill="none" stroke="#14b8a6" stroke-width="10" stroke-linecap="round" stroke-dasharray="18 18"/>

</svg>