<svg xmlns="http://www.w3.org/2000/svg" viewBox="0 0 1200 780" role="img" aria-label="安全なAI運用ルールを整えるイラスト">
  <defs>
    <linearGradient id="bg" x1="0" x2="1" y1="0" y2="1"><stop offset="0" stop-color="#ede9fe"/><stop offset="1" stop-color="#ecfeff"/></linearGradient>
    <filter id="shadow" x="-20%" y="-20%" width="140%" height="140%"><feDropShadow dx="0" dy="22" stdDeviation="22" flood-color="#1d4ed8" flood-opacity=".14"/></filter>
  </defs>
  <rect width="1200" height="780" rx="58" fill="url(#bg)"/>
  <circle cx="1040" cy="120" r="160" fill="#fff" opacity=".24"/>
  <circle cx="160" cy="690" r="190" fill="#fff" opacity=".18"/>
  
  <rect x="110" y="102" width="980" height="576" rx="50" fill="#fff" opacity=".86" filter="url(#shadow)"/>
  <path d="M600 150 L858 252v156c0 144-98 224-258 278-160-54-258-134-258-278V252z" fill="#eff6ff" stroke="#93c5fd" stroke-width="8"/>
  <path d="M486 400 l78 78 158-188" fill="none" stroke="#14b8a6" stroke-width="30" stroke-linecap="round" stroke-linejoin="round"/>
  <rect x="160" y="200" width="230" height="74" rx="24" fill="#fef3c7"/><rect x="160" y="306" width="190" height="56" rx="20" fill="#fde68a"/><rect x="160" y="394" width="246" height="56" rx="20" fill="#fde68a" opacity=".75"/>
  <rect x="824" y="206" width="220" height="66" rx="22" fill="#dcfce7"/><rect x="852" y="318" width="170" height="50" rx="20" fill="#bbf7d0"/><rect x="826" y="402" width="218" height="50" rx="20" fill="#bbf7d0" opacity=".75"/>
  <text x="505" y="612" font-family="Arial, sans-serif" font-size="42" font-weight="800" fill="#1e3a8a">Safe AI Workflow</text>

</svg>